<svg width="32" height="32" viewBox="0 0 32 32" fill="none" xmlns="http://www.w3.org/2000/svg"><path d="M14 3H8" stroke="white" stroke-width="2" stroke-miterlimit="10" stroke-linecap="square"></path><path d="M24 3L18 3" stroke="white" stroke-width="2" stroke-miterlimit="10" stroke-linecap="square"></path><path d="M16 31C14.8667 31 14 30.1333 14 29V25C14 23.8667 14.8667 23 16 23C17.1333 23 18 23.8667 18 25V29C18 30.1333 17.1333 31 16 31Z" stroke="white" stroke-width="2" stroke-miterlimit="10" stroke-linecap="square"></path><path d="M16 5C17.1046 5 18 4.10457 18 3C18 1.89543 17.1046 1 16 1C14.8954 1 14 1.89543 14 3C14 4.10457 14.8954 5 16 5Z" stroke="white" stroke-width="2" stroke-miterlimit="10" stroke-linecap="square"></path><path d="M16 4V24" stroke="white" stroke-width="2"></path></svg>
