<svg width="32" height="32" viewBox="0 0 32 32" fill="none" xmlns="http://www.w3.org/2000/svg"><path d="M28 14L26.448 5.463C26.189 4.037 24.946 3 23.496 3H8.504C7.054 3 5.812 4.037 5.552 5.463L4 14" stroke="white" stroke-width="2" stroke-miterlimit="10"></path><path d="M9 24V26C9 27.6569 7.65685 29 6 29V29C4.34315 29 3 27.6569 3 26V24" stroke="white" stroke-width="2" stroke-miterlimit="10" stroke-linecap="square"></path><path d="M29 24V26C29 27.6569 27.6569 29 26 29V29C24.3431 29 23 27.6569 23 26V24" stroke="white" stroke-width="2" stroke-miterlimit="10" stroke-linecap="square"></path><path d="M31 24H1V18.243C1 17.447 1.316 16.684 1.879 16.122L4 14H28L30.121 16.121C30.684 16.684 31 17.447 31 18.243V24Z" stroke="white" stroke-width="2" stroke-miterlimit="10" stroke-linecap="square"></path><path d="M6.5 21C7.32843 21 8 20.3284 8 19.5C8 18.6716 7.32843 18 6.5 18C5.67157 18 5 18.6716 5 19.5C5 20.3284 5.67157 21 6.5 21Z" fill="white"></path><path d="M25.5 21C26.3284 21 27 20.3284 27 19.5C27 18.6716 26.3284 18 25.5 18C24.6716 18 24 18.6716 24 19.5C24 20.3284 24.6716 21 25.5 21Z" fill="white"></path></svg>
