<svg height="24" viewBox="0 0 304 64" fill="none" xmlns="http://www.w3.org/2000/svg"><path d="M159.982 0H128V64H143.991V48.009H175.973V0H159.982ZM159.982 31.982H143.991V15.991H159.982V31.982ZM223.982 0H192V64H207.991V48.009H239.973V0H223.982ZM223.982 31.982H207.991V15.991H223.982V31.982Z" fill="red"></path><path d="M287.982 0V15.991V31.982H271.991V15.991V0H256V15.991V31.982V47.9729H271.991H287.982V64H303.973V47.9729V31.982V15.991V0H287.982Z" fill="red"></path><path d="M31.982 0H0V64H15.991V48.009H47.9729V0H31.982ZM31.982 31.982H15.991V15.991H31.982V31.982ZM95.982 0H64V64H111.973V0H95.982ZM95.982 31.982V47.9729H79.991V15.991H95.982V31.982Z" fill="red"></path></svg>
