<svg width="32" height="32" xmlns="http://www.w3.org/2000/svg" viewBox="0 0 32 32"><g><path data-cap="butt" fill="none" stroke="white" stroke-width="2" stroke-miterlimit="10" d="M18.6,8c3,0.3,5.4,2.9,5.4,6v13h-5" stroke-linejoin="miter" stroke-linecap="butt"></path> <path data-cap="butt" fill="none" stroke="white" stroke-width="2" stroke-miterlimit="10" d="M13,27H8V14c0-3.1,2.4-5.7,5.4-6" stroke-linejoin="miter" stroke-linecap="butt"></path> <line fill="none" stroke="white" stroke-width="2" stroke-linecap="square" stroke-miterlimit="10" x1="12" y1="5" x2="8" y2="5" stroke-linejoin="miter"></line> <line fill="none" stroke="white" stroke-width="2" stroke-linecap="square" stroke-miterlimit="10" x1="24" y1="5" x2="20" y2="5" stroke-linejoin="miter"></line> <path data-color="color-2" fill="none" stroke="white" stroke-width="2" stroke-linecap="square" stroke-miterlimit="10" d="M16,31L16,31 c-1.7,0-3-1.3-3-3v-6c0-1.7,1.3-3,3-3h0c1.7,0,3,1.3,3,3v6C19,29.7,17.7,31,16,31z" stroke-linejoin="miter"></path> <circle data-color="color-2" fill="none" stroke="white" stroke-width="2" stroke-linecap="square" stroke-miterlimit="10" cx="16" cy="5" r="4" stroke-linejoin="miter"></circle></g></svg>
